# xmcd
#
# Track frame offsets:
#	150
#	17030
#	40027
#	56850
#	70407
#	91180
#	108637
#	124772
#	149607
#	169967
#
# Disc length: 2500 seconds
#
# Revision: 5
# Processed by: cddbd v1.5.2PL0 Copyright (c) Steve Scherf et al.
# Submitted via: audiograbber 1.83.01
#
DISCID=9109c20a
DTITLE=Tom Russell Band - Hurricane Season
DYEAR=1991
DGENRE=Country
TTITLE0=Black Pearl
TTITLE1=Lord Of The Trains
TTITLE2=Beyond The Blues
TTITLE3=Jack Johnson
TTITLE4=Chocolate Cigarettes
TTITLE5=Winnipeg
TTITLE6=The Evangeline Hotel
TTITLE7=A Dollar's Worth Of Gasoline
TTITLE8=Hurricane Season
TTITLE9=Haley's Comet
EXTD=
EXTT0=
EXTT1=
EXTT2=
EXTT3=
EXTT4=
EXTT5=
EXTT6=
EXTT7=
EXTT8=
EXTT9=
PLAYORDER=
